# xmcd
#
# Track frame offsets: 
#        150
#        12790
#        28167
#        45680
#        57770
#        72650
#        89852
#        107815
#        127030
#        138885
#
# Disc length: 2104 seconds
#
# Revision: 2
# Processed by: cddbd v1.5.1PL2 Copyright (c) Steve Scherf et al.
# Submitted via: ExactAudioCopy v0.95b4
#
DISCID=9108360a
DTITLE=John Michael Montgomery - What I Do The Best
DYEAR=1900
DGENRE=Country
TTITLE0=Ain't Got Nothin' On Us
TTITLE1=A Few Cents Short
TTITLE2=Friends
TTITLE3=Lucky Arms
TTITLE4=What I Do The Best
TTITLE5=Cloud 8
TTITLE6=I Can Prove You Wrong
TTITLE7=How Was I To Know
TTITLE8=Paint The Town Redneck
TTITLE9=I Miss You A Little
EXTD=
EXTT0=
EXTT1=
EXTT2=
EXTT3=
EXTT4=
EXTT5=
EXTT6=
EXTT7=
EXTT8=
EXTT9=
PLAYORDER=
